<svg width="25" height="25" viewBox="0 0 25 25" fill="none" xmlns="http://www.w3.org/2000/svg">
<path fill-rule="evenodd" clip-rule="evenodd" d="M2.79395 12.8643C2.79395 18.3871 7.2711 22.8643 12.7939 22.8643C18.3168 22.8643 22.7939 18.3871 22.7939 12.8643C22.7939 7.34141 18.3168 2.86426 12.7939 2.86426C7.2711 2.86426 2.79395 7.34141 2.79395 12.8643ZM16.3243 13.3339C16.6172 13.6268 16.6172 14.1017 16.3243 14.3946L13.3243 17.3946C13.0314 17.6875 12.5565 17.6875 12.2636 17.3946L9.26361 14.3946C8.97072 14.1017 8.97072 13.6268 9.26361 13.3339C9.55651 13.041 10.0314 13.041 10.3243 13.3339L12.0439 15.0536V8.86426C12.0439 8.45004 12.3797 8.11426 12.7939 8.11426C13.2082 8.11426 13.5439 8.45004 13.5439 8.86426V15.0536L15.2636 13.3339C15.5565 13.041 16.0314 13.041 16.3243 13.3339Z" fill="white"/>
</svg>
